<?xml version="1.0" standalone="no"?>
<!DOCTYPE svg PUBLIC "-//W3C//DTD SVG 20010904//EN"
 "http://www.w3.org/TR/2001/REC-SVG-20010904/DTD/svg10.dtd">
<svg version="1.0" xmlns="http://www.w3.org/2000/svg"
 width="192.000000pt" height="192.000000pt" viewBox="0 0 192.000000 192.000000"
 preserveAspectRatio="xMidYMid meet">

<g transform="translate(0.000000,192.000000) scale(0.100000,-0.100000)"
fill="#000000" stroke="none">
<path d="M275 1711 c-11 -5 -31 -21 -45 -36 l-25 -27 -3 -666 c-2 -466 0 -678
8 -705 7 -25 22 -45 43 -57 31 -19 56 -20 705 -20 582 0 677 2 702 15 62 32
60 8 60 750 l0 675 -34 38 -34 37 -679 2 c-373 1 -687 -2 -698 -6z m773 -235
c76 -20 100 -40 129 -103 22 -48 25 -68 24 -156 0 -55 -5 -105 -10 -110 -4 -4
-28 -7 -52 -5 l-44 3 2 105 c3 136 -8 170 -62 188 -65 22 -133 2 -184 -53 -47
-51 -55 -85 -49 -196 l5 -79 -38 0 c-54 0 -63 22 -55 132 9 128 43 197 129
259 33 24 50 29 96 29 31 0 80 -7 109 -14z m260 -380 c13 -13 8 -16 -39 -30
-80 -24 -322 -57 -419 -58 -90 0 -231 29 -237 49 -3 7 13 16 33 22 21 6 38 9
38 8 16 -60 112 -70 137 -13 14 29 43 36 159 36 79 0 88 -2 93 -20 4 -17 14
-20 56 -20 43 0 55 4 74 26 18 21 28 25 56 20 19 -3 41 -12 49 -20z m15 -178
c-3 -79 -8 -205 -12 -282 l-6 -138 -48 -19 c-90 -36 -220 -52 -372 -46 -143 5
-206 19 -272 63 l-26 16 6 245 c3 135 8 247 10 249 2 3 44 -5 93 -17 71 -17
106 -20 176 -15 141 9 308 36 378 61 36 12 68 23 72 24 3 0 4 -63 1 -141z"/>
<path d="M926 829 c-39 -31 -48 -53 -34 -83 6 -14 16 -26 21 -26 10 0 4 -80
-9 -127 -6 -22 -4 -23 49 -23 67 0 73 10 53 91 -11 47 -10 59 1 75 18 24 17
79 -3 98 -21 22 -46 20 -78 -5z"/>
</g>
</svg>
